<svg viewBox="587.5539 384.5301 354.8922 72.9398" width="5000" height="1027.6331798782842" xmlns="http://www.w3.org/2000/svg" xmlns:xlink="http://www.w3.org/1999/xlink" preserveAspectRatio="none"><defs></defs><style>.aIptOCySncolors-0 {fill:#9AEBA6;fill-opacity:1;}.aIptOCySncolors-1 {fill:#35C0ED;fill-opacity:1;}.companyName {fill:#08376B;fill-opacity:1;}.icon3-str {stroke:#2F90B0;stroke-opacity:1;}</style><g opacity="1" transform="rotate(0 587.5539 384.5301)">
<svg width="64.6611" height="72.9398" x="587.5539" y="384.5301" version="1.1" preserveAspectRatio="none" viewBox="28.999996185302734 20 141.84005737304688 160">
  <g transform="matrix(1 0 0 1 0 0)" ><g><path d="M30.534 111.496c3.073-5.296 9.77-7.182 15.134-4.34l.39.216 32.48 18.846a37.863 37.863 0 0 1 18.853 32.012l.007.735V180l-49.78-28.763a37.259 37.259 0 0 1-18.611-31.522l-.007-.738v-1.781c0-2.002.529-3.968 1.534-5.7zm138.649-.011a11.356 11.356 0 0 1 1.534 5.7v1.781a37.258 37.258 0 0 1-18.618 32.26l-49.78 28.763v-21.035a37.86 37.86 0 0 1 18.859-32.747l32.48-18.846c5.426-3.148 12.376-1.302 15.525 4.124zM101.647 20v21.155a37.86 37.86 0 0 1-18.919 32.782L29.97 104.418V83.386a37.863 37.863 0 0 1 18.862-32.749L101.647 20z" data-color="1" class="aIptOCySncolors-0"></path><path opacity=".3" d="M78.539 126.219l-32.48-18.846c-5.426-3.148-12.376-1.302-15.524 4.124a11.356 11.356 0 0 0-1.534 5.7v1.781a37.258 37.258 0 0 0 18.618 32.26L97.398 180v-21.035a37.859 37.859 0 0 0-18.859-32.746z" data-color="2" class="aIptOCySncolors-1"></path><path opacity=".6" d="M121.178 126.208l32.48-18.846c5.426-3.148 12.376-1.302 15.524 4.124a11.356 11.356 0 0 1 1.534 5.7v1.781a37.258 37.258 0 0 1-18.618 32.26l-49.78 28.763v-21.035a37.861 37.861 0 0 1 18.86-32.747z" data-color="2" class="aIptOCySncolors-1"></path><path d="M132.804 61.335v-21.57l19.218 11.183a37.859 37.859 0 0 1 18.818 32.794l-.04 21.308-18.962-10.868a37.858 37.858 0 0 1-19.034-32.847z" data-color="2" class="aIptOCySncolors-1"></path></g></g>
</svg>
</g><g opacity="1" transform="rotate(0 670.2119 395.8289)">
<svg width="272.2342" height="50.3422" x="670.2119" y="395.8289" version="1.1" preserveAspectRatio="none" viewBox="2.4414 -30.3906 166.46490000000003 30.7813">
  <g transform="matrix(1 0 0 1 0 0)" class="companyName"><path id="id-D6z1nYkh7" d="M16.48-11.99L16.48-14.96L26.19-14.96L26.19-1.07Q23.93-0.35 21.58 0.02Q19.24 0.39 16.15 0.39L16.15 0.39Q9.67 0.39 6.05-3.47Q2.44-7.32 2.44-14.28L2.44-14.28Q2.44-18.73 4.23-22.08Q6.02-25.43 9.38-27.20Q12.73-28.96 17.25-28.96L17.25-28.96Q21.82-28.96 25.76-27.29L25.76-27.29L24.47-24.36Q20.61-26.00 17.03-26.00L17.03-26.00Q11.82-26.00 8.89-22.89Q5.96-19.79 5.96-14.28L5.96-14.28Q5.96-8.50 8.78-5.51Q11.60-2.52 17.07-2.52L17.07-2.52Q20.04-2.52 22.87-3.20L22.87-3.20L22.87-11.99L16.48-11.99Z M51.04-10.72L51.04-10.72Q51.04-5.49 48.40-2.55Q45.76 0.39 41.11 0.39L41.11 0.39Q38.24 0.39 36.02-0.96Q33.79-2.30 32.58-4.82Q31.37-7.34 31.37-10.72L31.37-10.72Q31.37-15.96 33.98-18.88Q36.60-21.80 41.25-21.80L41.25-21.80Q45.74-21.80 48.39-18.81Q51.04-15.82 51.04-10.72ZM34.73-10.72L34.73-10.72Q34.73-6.62 36.37-4.47Q38.01-2.32 41.19-2.32L41.19-2.32Q44.38-2.32 46.03-4.46Q47.68-6.60 47.68-10.72L47.68-10.72Q47.68-14.80 46.03-16.92Q44.38-19.04 41.15-19.04L41.15-19.04Q37.97-19.04 36.35-16.95Q34.73-14.86 34.73-10.72Z M75.20-10.72L75.20-10.72Q75.20-5.49 72.56-2.55Q69.92 0.39 65.27 0.39L65.27 0.39Q62.40 0.39 60.18-0.96Q57.95-2.30 56.74-4.82Q55.53-7.34 55.53-10.72L55.53-10.72Q55.53-15.96 58.14-18.88Q60.76-21.80 65.41-21.80L65.41-21.80Q69.90-21.80 72.55-18.81Q75.20-15.82 75.20-10.72ZM58.89-10.72L58.89-10.72Q58.89-6.62 60.53-4.47Q62.17-2.32 65.35-2.32L65.35-2.32Q68.54-2.32 70.19-4.46Q71.84-6.60 71.84-10.72L71.84-10.72Q71.84-14.80 70.19-16.92Q68.54-19.04 65.31-19.04L65.31-19.04Q62.13-19.04 60.51-16.95Q58.89-14.86 58.89-10.72Z M95.88 0L95.45-2.87L95.27-2.87Q93.03 0.39 88.55 0.39L88.55 0.39Q84.36 0.39 82.02-2.48Q79.69-5.35 79.69-10.64L79.69-10.64Q79.69-15.94 82.03-18.87Q84.38-21.80 88.55-21.80L88.55-21.80Q92.91-21.80 95.23-18.63L95.23-18.63L95.49-18.63L95.35-20.18L95.27-21.68L95.27-30.39L98.52-30.39L98.52 0L95.88 0ZM88.96-2.32L88.96-2.32Q92.29-2.32 93.78-4.13Q95.27-5.94 95.27-9.96L95.27-9.96L95.27-10.64Q95.27-15.20 93.76-17.14Q92.25-19.08 88.93-19.08L88.93-19.08Q86.07-19.08 84.56-16.87Q83.05-14.65 83.05-10.61L83.05-10.61Q83.05-6.50 84.55-4.41Q86.05-2.32 88.96-2.32Z M118.44-11.99L118.44-14.96L128.14-14.96L128.14-1.07Q125.88-0.35 123.54 0.02Q121.19 0.39 118.11 0.39L118.11 0.39Q111.62 0.39 108.01-3.47Q104.39-7.32 104.39-14.28L104.39-14.28Q104.39-18.73 106.18-22.08Q107.97-25.43 111.33-27.20Q114.69-28.96 119.20-28.96L119.20-28.96Q123.77-28.96 127.71-27.29L127.71-27.29L126.43-24.36Q122.56-26.00 118.98-26.00L118.98-26.00Q113.77-26.00 110.84-22.89Q107.91-19.79 107.91-14.28L107.91-14.28Q107.91-8.50 110.73-5.51Q113.55-2.52 119.02-2.52L119.02-2.52Q121.99-2.52 124.82-3.20L124.82-3.20L124.82-11.99L118.44-11.99Z M134.28-21.41L137.56-21.41L137.56-7.52Q137.56-4.90 138.75-3.61Q139.94-2.32 142.48-2.32L142.48-2.32Q145.84-2.32 147.39-4.16Q148.95-6.00 148.95-10.16L148.95-10.16L148.95-21.41L152.19-21.41L152.19 0L149.51 0L149.04-2.87L148.87-2.87Q147.87-1.29 146.10-0.45Q144.34 0.39 142.07 0.39L142.07 0.39Q138.16 0.39 136.22-1.46Q134.28-3.32 134.28-7.40L134.28-7.40L134.28-21.41Z M165.98-2.29L165.98-2.29Q166.84-2.29 167.64-2.41Q168.44-2.54 168.91-2.68L168.91-2.68L168.91-0.20Q168.38 0.06 167.35 0.22Q166.33 0.39 165.51 0.39L165.51 0.39Q159.30 0.39 159.30-6.15L159.30-6.15L159.30-18.89L156.23-18.89L156.23-20.45L159.30-21.80L160.66-26.37L162.54-26.37L162.54-21.41L168.75-21.41L168.75-18.89L162.54-18.89L162.54-6.29Q162.54-4.36 163.46-3.32Q164.38-2.29 165.98-2.29Z"/></g>
</svg>
</g></svg>