<?xml version="1.0" standalone="no"?>
<!DOCTYPE svg PUBLIC "-//W3C//DTD SVG 20010904//EN"
 "http://www.w3.org/TR/2001/REC-SVG-20010904/DTD/svg10.dtd">
<svg version="1.0" xmlns="http://www.w3.org/2000/svg"
 width="584.000000pt" height="584.000000pt" viewBox="0 0 584.000000 584.000000"
 preserveAspectRatio="xMidYMid meet">
<metadata>
Created by potrace 1.14, written by Peter Selinger 2001-2017
</metadata>
<g transform="translate(0.000000,584.000000) scale(0.100000,-0.100000)"
fill="#000000" stroke="none">
<path d="M2835 5754 c-77 -46 -146 -83 -152 -83 -7 -1 -13 -5 -13 -9 0 -4 -24
-20 -52 -35 -29 -16 -66 -36 -83 -46 -74 -44 -543 -316 -570 -330 -16 -9 -32
-18 -35 -21 -3 -3 -83 -50 -179 -105 -95 -55 -197 -113 -225 -130 -210 -121
-273 -157 -286 -166 -8 -5 -76 -44 -150 -88 -74 -44 -145 -89 -157 -100 -12
-12 -25 -21 -29 -21 -10 0 -23 -12 -137 -126 -219 -217 -346 -480 -393 -809
-7 -52 -13 -891 -6 -912 2 -7 34 6 85 36 131 77 559 323 592 340 16 9 32 18
35 21 3 3 16 11 30 19 14 8 61 35 105 60 44 25 97 55 118 66 20 11 37 23 37
27 0 5 5 8 10 8 9 0 51 23 138 75 69 41 193 111 220 124 17 8 32 19 32 23 0 4
4 8 10 8 5 0 44 20 86 45 41 25 78 45 81 45 3 0 17 8 31 19 15 10 47 29 72 43
25 14 88 50 140 80 52 30 106 61 119 69 30 17 28 16 120 84 108 80 175 146
274 270 50 62 174 275 161 275 -4 0 -2 6 4 13 10 13 71 184 78 220 2 12 6 33
9 47 11 60 16 89 21 145 8 74 11 884 4 894 -3 4 -68 -30 -145 -75z"/>
<path d="M4120 5062 c-1 -31 -1 -61 -1 -67 2 -310 11 -838 15 -860 3 -16 8
-46 11 -65 22 -119 100 -330 158 -425 27 -44 91 -140 96 -145 4 -3 18 -21 32
-40 84 -111 272 -269 409 -341 25 -13 52 -29 60 -35 8 -6 38 -24 65 -39 28
-14 64 -34 80 -44 56 -33 130 -74 152 -85 13 -6 23 -14 23 -18 0 -5 6 -8 14
-8 7 0 25 -9 40 -21 14 -11 26 -17 26 -13 0 4 8 0 18 -8 18 -15 144 -88 175
-100 17 -7 18 12 14 465 -2 259 -7 486 -10 502 -3 17 -8 44 -11 60 -3 17 -9
45 -15 63 -5 18 -10 35 -11 37 -9 48 -14 66 -21 71 -5 3 -9 14 -9 25 0 11 -18
58 -40 105 -22 47 -40 90 -40 95 0 5 -4 9 -9 9 -5 0 -11 8 -15 18 -22 66 -137
215 -246 318 -103 97 -183 154 -365 258 -55 31 -107 61 -115 66 -16 10 -103
60 -160 93 -95 53 -125 72 -128 79 -2 4 -8 8 -13 8 -6 0 -48 22 -94 49 l-83
49 -2 -56z"/>
<path d="M687 2704 c-1 -2 -18 -6 -36 -9 -132 -23 -269 -156 -308 -297 -13
-46 -11 -293 2 -373 12 -68 22 -110 59 -245 4 -15 34 -85 63 -150 9 -19 22
-42 29 -50 7 -8 13 -19 14 -25 5 -32 129 -195 215 -281 129 -130 212 -187 497
-347 44 -25 142 -81 168 -97 50 -30 153 -90 155 -90 2 0 39 -21 82 -47 43 -25
94 -55 113 -65 19 -10 49 -27 65 -37 17 -10 134 -78 260 -151 252 -145 251
-145 378 -219 49 -28 93 -51 98 -51 5 0 9 -4 9 -10 0 -5 4 -10 10 -10 5 0 47
-22 92 -48 46 -27 104 -61 130 -75 l47 -27 -3 462 c-3 422 -6 490 -20 553 -82
373 -252 647 -531 857 -53 40 -396 247 -465 282 -8 4 -33 18 -55 31 -22 13
-53 31 -68 40 -16 9 -149 86 -295 172 -147 86 -292 169 -322 186 -30 17 -71
41 -91 53 -44 28 -105 54 -139 60 -30 6 -149 12 -153 8z"/>
<path d="M5000 2697 c-70 -16 -56 -9 -430 -227 -173 -101 -335 -194 -360 -208
-43 -24 -95 -54 -135 -79 -11 -7 -42 -24 -70 -39 -27 -14 -57 -32 -65 -39 -8
-7 -25 -16 -37 -19 -13 -4 -23 -12 -23 -17 0 -5 -4 -9 -10 -9 -5 0 -44 -20
-86 -45 -41 -25 -78 -45 -81 -45 -6 0 -154 -103 -191 -133 -73 -59 -205 -204
-260 -285 -34 -50 -62 -93 -62 -96 0 -3 -13 -27 -28 -53 -59 -101 -121 -298
-142 -455 -10 -65 -22 -948 -13 -948 2 0 377 216 418 241 17 10 46 27 65 37
19 10 103 58 185 107 83 48 175 101 205 118 30 17 99 57 153 89 53 32 99 58
101 58 3 0 76 42 156 90 67 40 168 98 180 103 8 4 29 15 45 25 41 26 270 159
324 190 25 14 50 29 55 33 6 5 39 30 74 55 120 88 275 259 338 374 10 19 21
37 24 40 13 13 50 91 50 104 0 9 5 16 12 16 6 0 8 3 5 7 -4 3 -3 11 2 17 8 9
44 109 56 156 12 42 24 98 29 125 2 17 8 50 12 75 12 76 12 259 -1 319 -46
223 -272 368 -495 318z"/>
</g>
</svg>
